<svg xmlns="http://www.w3.org/2000/svg" viewBox="0 0 24 24" fill="none" stroke="currentColor" stroke-width="1.5" stroke-linecap="round" stroke-linejoin="round">
  <!-- Brain outline left -->
  <path d="M12 2C9.5 2 7.5 3.5 7 5.5C5.5 5.5 4 7 4 9C4 10.5 4.5 11.5 5.5 12C4.5 13 4 14.5 4 16C4 18.5 6 20.5 8.5 20.5C9.5 20.5 10.5 20 11 19.5"/>
  <!-- Brain outline right -->
  <path d="M12 2C14.5 2 16.5 3.5 17 5.5C18.5 5.5 20 7 20 9C20 10.5 19.5 11.5 18.5 12C19.5 13 20 14.5 20 16C20 18.5 18 20.5 15.5 20.5C14.5 20.5 13.5 20 13 19.5"/>
  <!-- Center line -->
  <line x1="12" y1="2" x2="12" y2="22"/>
  <!-- Circuit nodes -->
  <circle cx="9" cy="9" r="0.8" fill="currentColor" stroke="none"/>
  <circle cx="15" cy="9" r="0.8" fill="currentColor" stroke="none"/>
  <circle cx="8" cy="14" r="0.8" fill="currentColor" stroke="none"/>
  <circle cx="16" cy="14" r="0.8" fill="currentColor" stroke="none"/>
  <!-- Circuit connections -->
  <line x1="9" y1="9" x2="12" y2="9"/>
  <line x1="15" y1="9" x2="12" y2="9"/>
  <line x1="8" y1="14" x2="12" y2="14"/>
  <line x1="16" y1="14" x2="12" y2="14"/>
  <!-- Pulse at bottom -->
  <path d="M8 22L10 20L12 22L14 20L16 22"/>
</svg>
